<svg width="24" height="24" viewBox="0 0 24 24" fill="none" xmlns="http://www.w3.org/2000/svg">
<path d="M16 12H23M23 3.25H19.5C18.9 3.25 18.5 3.65 18.5 4.25V19.75C18.5 20.35 18.9 20.75 19.5 20.75H23M13.7 19.75C12.8 17.15 10.3 15.25 7.4 15.25C4.5 15.25 1.9 17.15 1 19.75M7.3 6.25V3.25M1.8 9.15H12.8M3.2 10.25C3.3 12.45 5.1 14.25 7.3 14.25C9.6 14.25 11.4 12.45 11.4 10.15V8.35C11.4 6.05 9.6 4.25 7.3 4.25C5.1 4.25 3.3 6.05 3.2 8.25V10.25Z" stroke="#140047" stroke-width="1.5" stroke-miterlimit="10" stroke-linecap="round" stroke-linejoin="round"/>
</svg>
